<?xml version="1.0" standalone="no"?><!DOCTYPE svg PUBLIC "-//W3C//DTD SVG 1.1//EN" "http://www.w3.org/Graphics/SVG/1.1/DTD/svg11.dtd"><svg t="1619756524422" class="icon" viewBox="0 0 1024 1024" version="1.1" xmlns="http://www.w3.org/2000/svg" p-id="1509" xmlns:xlink="http://www.w3.org/1999/xlink" width="200" height="200"><defs><style type="text/css"></style></defs><path d="M804.571429 109.714286A182.857143 182.857143 0 0 1 987.428571 292.571429v438.857142a182.857143 182.857143 0 0 1-182.857142 182.857143H219.428571A182.857143 182.857143 0 0 1 36.571429 731.428571V292.571429A182.857143 182.857143 0 0 1 219.428571 109.714286z m0 73.142857H219.428571A109.714286 109.714286 0 0 0 109.714286 292.571429v438.857142A109.714286 109.714286 0 0 0 219.428571 841.142857h57.929143l312.612572-312.539428a182.857143 182.857143 0 0 1 207.945143-35.84l12.068571 6.363428 104.301714 59.538286V292.571429a109.714286 109.714286 0 0 0-99.181714-109.202286L804.571429 182.857143zM649.508571 573.220571l-7.826285 7.094858L380.781714 841.142857H804.571429a109.714286 109.714286 0 0 0 109.202285-99.181714L914.285714 731.428571V642.998857l-140.580571-80.384a109.714286 109.714286 0 0 0-124.196572 10.605714zM310.857143 256a128 128 0 1 1 0 256 128 128 0 0 1 0-256z m0 73.142857a54.857143 54.857143 0 1 0 0 109.714286 54.857143 54.857143 0 0 0 0-109.714286z" fill="#FFFFFF" p-id="1510"></path></svg>