<?xml version="1.0" encoding="UTF-8"?>
<svg width="135px" height="105px" viewBox="0 0 135 105" version="1.1" xmlns="http://www.w3.org/2000/svg" xmlns:xlink="http://www.w3.org/1999/xlink">
    <!-- Generator: Sketch 64 (93537) - https://sketch.com -->
    <title>默认图</title>
    <desc>Created with Sketch.</desc>
    <g id="1.0.1-首页" stroke="none" stroke-width="1" fill="none" fill-rule="evenodd">
        <g id="默认图">
            <rect id="矩形" fill="#EDEDF1" x="0" y="0" width="135" height="105"></rect>
            <path d="M76.7440477,35 C79.4976191,35 81.7380953,36.5508766 82.3321429,39.7693366 L84.1904762,45.4254039 C84.3542587,45.3311681 84.5389377,45.2802644 84.727381,45.277415 L88.85,45.277415 C89.4833334,45.277415 89.9964286,45.7959781 89.9964286,46.4384668 L89.9964286,47.4467171 L90,47.4467171 C90,48.0872839 89.4861935,48.6065658 88.852381,48.6065658 L87.3261905,48.8688553 C87.8214286,49.8446202 88.1035714,50.9599519 88.1035714,52.2581644 L88.6809524,58.9345136 C88.6809524,59.1270196 88.6654762,59.3243383 88.6428572,59.521657 C88.6654762,59.6443795 88.6809525,59.7695085 88.6809524,59.89945 L88.6809524,67.9293572 C88.6809524,69.0723617 87.7630952,70 86.6321429,70 L83.5059524,70 C82.375,70 81.4571429,69.0723616 81.4571429,67.9293572 L81.4571429,65.3485734 L54.5809524,65.3485734 L54.5809524,67.9293572 C54.5809524,69.0723617 53.6642858,70 52.5321429,70 L49.4059524,70 C48.2761906,70 47.3583334,69.0723616 47.3583334,67.9293572 L47.3583334,59.89945 C47.3583334,59.7695085 47.3738096,59.6431764 47.3952382,59.521657 C47.3708516,59.3268965 47.35813,59.1308248 47.3571429,58.9345136 L47.9345238,52.2581644 C47.9345238,50.9623582 48.2166667,49.8494329 48.7083334,48.8748711 L47.1476191,48.6053627 C46.5140786,48.6046996 46.0006562,48.0858058 46,47.4455139 L46,46.4384668 C46,45.795978 46.5142857,45.2774149 47.1476191,45.277415 L51.2690477,45.277415 C51.4785714,45.277415 51.6714286,45.3423857 51.8404762,45.4410451 L53.702381,39.7657271 C54.2119048,37.0838777 56.129762,35 59.2904762,35 L76.7440477,35 Z M56.0392857,55.2756962 C54.3265455,55.2756962 52.9380953,56.6789426 52.9380953,58.4099347 C52.9380953,60.1409269 54.3265455,61.5441732 56.0392857,61.5441732 C57.7520259,61.5441732 59.1404762,60.1409269 59.1404762,58.4099347 C59.1404762,56.6789426 57.7520259,55.2756962 56.0392857,55.2756962 Z M80,55.2756962 C78.2872599,55.2756962 76.8988096,56.6789426 76.8988096,58.4099347 C76.8988096,60.1409269 78.2872599,61.5441732 80,61.5441732 C81.7127402,61.5441732 83.1011905,60.1409269 83.1011905,58.4099347 C83.1011905,56.6789426 81.7127402,55.2756962 80,55.2756962 Z M78.7130953,38.8874184 L57.3535715,38.8874184 L57.2350829,39.0337541 C56.8521449,39.4902327 56.5900434,39.6600675 56.4666667,40.3360262 L56.4666667,40.3360262 L56.4476191,40.4214507 L55.0833334,44.0910967 L54.575,46.1352699 L54.5935284,46.2943886 C54.8160305,47.7148904 56.5219388,48.8135098 57.95,48.8135098 L57.95,48.8135098 L78.0904762,48.8135098 L78.2500762,48.8090282 C79.6951577,48.7287145 81.3529337,47.5785493 81.4642858,46.1352699 L81.4642858,46.1352699 L80.9571429,44.0910967 L79.5714286,40.3264008 L79.5292024,40.1315438 C79.3883095,39.5907271 79.1191667,39.4169302 78.7130953,38.8874184 L78.7130953,38.8874184 Z" id="形状结合" fill="#FFFFFF" fill-rule="nonzero"></path>
        </g>
    </g>
</svg>