<?xml version="1.0" encoding="UTF-8"?>
<svg width="512px" height="512px" viewBox="0 0 512 512" version="1.1" xmlns="http://www.w3.org/2000/svg" xmlns:xlink="http://www.w3.org/1999/xlink">
    <!-- Generator: Sketch 64 (93537) - https://sketch.com -->
    <title>logo</title>
    <desc>Created with Sketch.</desc>
    <g id="logo" stroke="none" stroke-width="1" fill="none" fill-rule="evenodd">
        <rect id="矩形" fill="#1649FB" x="0" y="0" width="512" height="512" rx="153.6"></rect>
        <path d="M380.800194,361.783353 L380.8,375.84 C380.8,382.467417 375.427417,387.84 368.8,387.84 L349.6,387.84 C342.972583,387.84 337.6,382.467417 337.6,375.84 L337.600331,367.121872 C352.183392,365.706861 366.593895,363.921447 380.800194,361.783353 Z M131.198816,361.783204 C145.405436,363.921364 159.81627,365.706828 174.39967,367.121872 L174.4,378.24 C174.4,383.541934 170.101934,387.84 164.8,387.84 L140.8,387.84 C135.498066,387.84 131.2,383.541934 131.2,378.24 L131.198816,361.783204 Z M256,124.16 C282.715645,124.16 309.006766,125.001029 334.873463,126.682938 C350.887522,127.724203 365.011061,137.500891 371.575646,152.089159 L399.599,214.365 L435.97225,210.516056 C441.74842,209.904778 446.962136,213.970528 447.848341,219.715567 L447.889028,220.004205 C448.670219,226.119729 445.265227,231.983196 439.623468,234.311025 L439.324479,234.43026 L413.162,244.505 L419.915792,259.513934 C421.247225,262.472735 421.803804,265.71954 421.5335,268.950828 L416.639907,327.450162 C415.736203,338.253216 407.666957,347.107522 396.960127,349.044593 C351.168479,357.329184 304.182883,361.472 256,361.472 C207.817118,361.472 160.831523,357.329184 115.039875,349.044594 C104.333039,347.107525 96.2637907,338.253215 95.3600919,327.450155 L90.4664997,268.950828 C90.1961957,265.71954 90.7527754,262.472735 92.0842082,259.513934 L98.837,244.505 L72.6755212,234.43026 C66.8555346,232.188854 63.316076,226.227019 64.1109721,220.004205 C64.86423,214.107353 70.1553104,209.89459 76.0277499,210.516056 L112.4,214.365 L140.424356,152.089156 C146.988943,137.500893 161.11248,127.724207 177.126534,126.682938 C202.993233,125.001029 229.284354,124.16 256,124.16 Z M356.8,270.382545 C344.870649,270.382545 335.2,280.041473 335.2,291.956364 C335.2,292.725011 335.240247,293.48427 335.319949,294.233019 C314.092524,302.284186 287.653856,306.338909 256,306.338909 C224.346144,306.338909 197.907476,302.284186 176.68125,294.232152 C176.759753,293.48427 176.8,292.725011 176.8,291.956364 C176.8,280.041473 167.129351,270.382545 155.2,270.382545 C143.270649,270.382545 133.6,280.041473 133.6,291.956364 C133.6,303.871254 143.270649,313.530182 155.2,313.530182 C162.958698,313.530182 169.761958,309.44442 173.57001,303.309696 C195.942683,311.740404 223.420632,315.927273 256,315.927273 C288.579368,315.927273 316.057317,311.740404 338.429369,303.309572 C342.238042,309.44442 349.041302,313.530182 356.8,313.530182 C368.729351,313.530182 378.4,303.871254 378.4,291.956364 C378.4,280.041473 368.729351,270.382545 356.8,270.382545 Z M256,143.336727 C229.006321,143.336727 202.012643,145.226726 175.018964,149.006723 C168.79329,149.878521 163.397499,153.740759 160.560309,159.332042 L160.386332,159.683737 L133.6,215.249455 C173.6,210.455273 214.4,208.058182 256,208.058182 C296.56,208.058182 336.3595,210.336916 375.3985,214.894385 L378.4,215.249455 L351.613667,159.683736 C348.826964,153.902983 343.33641,149.896682 336.981035,149.006723 C309.987356,145.226726 282.993678,143.336727 256,143.336727 Z" id="形状结合" fill="#FFFFFF"></path>
    </g>
</svg>