<?xml version="1.0" standalone="no"?><!DOCTYPE svg PUBLIC "-//W3C//DTD SVG 1.1//EN" "http://www.w3.org/Graphics/SVG/1.1/DTD/svg11.dtd"><svg t="1619683747847" class="icon" viewBox="0 0 1024 1024" version="1.1" xmlns="http://www.w3.org/2000/svg" p-id="4013" xmlns:xlink="http://www.w3.org/1999/xlink" width="200" height="200"><defs><style type="text/css"></style></defs><path d="M746.282667 96a117.333333 117.333333 0 0 1 112.853333 85.12l24.405333 85.546667H981.333333a32 32 0 0 1 4.352 63.701333L981.333333 330.666667h-79.488l19.072 66.645333a117.376 117.376 0 0 1 92.202667 107.52l0.213333 7.168v330.666667h-85.333333V896a32 32 0 0 1-63.701333 4.352L864 896v-53.333333H160V896a32 32 0 0 1-63.701333 4.352L96 896v-53.333333h-85.333333V512c0-56.277333 39.594667-103.253333 92.416-114.688l19.029333-66.645333H42.666667a32 32 0 0 1-4.352-63.701334L42.666667 266.666667h97.749333l24.448-85.546667a117.333333 117.333333 0 0 1 105.045333-84.864l7.808-0.256z m-12.672 362.666667H290.346667l-26.325334 92.245333a64 64 0 0 1-55.466666 46.122667L202.496 597.333333H74.666667v181.333334h874.666666V597.333333h-127.829333a64 64 0 0 1-59.562667-40.661333l-1.962666-5.76-26.368-92.245333z m162.389333 0h-118.016l23.04 80.512a21.333333 21.333333 0 0 0 16.981333 15.189333l3.498667 0.298667h127.829333v-42.666667a53.333333 53.333333 0 0 0-42.581333-52.266667l-5.290667-0.810666L896 458.666667z m-650.026667 0H128c-29.44 0-53.333333 23.893333-53.333333 53.333333v42.666667h127.829333a21.333333 21.333333 0 0 0 19.242667-12.16l1.28-3.328 22.954666-80.512z m500.309334-298.666667H277.76a53.333333 53.333333 0 0 0-51.285333 38.698667L170.410667 394.666667h683.136l-55.978667-195.968a53.333333 53.333333 0 0 0-45.824-38.4l-5.461333-0.298667z" fill="#1B2034" p-id="4014"></path></svg>