<?xml version="1.0" standalone="no"?><!DOCTYPE svg PUBLIC "-//W3C//DTD SVG 1.1//EN" "http://www.w3.org/Graphics/SVG/1.1/DTD/svg11.dtd"><svg t="1619683751943" class="icon" viewBox="0 0 1024 1024" version="1.1" xmlns="http://www.w3.org/2000/svg" p-id="4155" xmlns:xlink="http://www.w3.org/1999/xlink" width="200" height="200"><defs><style type="text/css"></style></defs><path d="M848.853333 535.04a121.813333 121.813333 0 0 1 121.813334 121.813333v179.626667a121.813333 121.813333 0 0 1-121.813334 121.856h-179.626666a121.813333 121.813333 0 0 1-121.856-121.813333v-179.626667a121.813333 121.813333 0 0 1 121.813333-121.856z m-494.08 0a121.813333 121.813333 0 0 1 121.856 121.813333v179.626667a121.813333 121.813333 0 0 1-121.813333 121.856h-179.626667a121.813333 121.813333 0 0 1-121.856-121.813333v-179.626667a121.813333 121.813333 0 0 1 121.813334-121.856z m494.08 64h-179.626666c-32 0-57.856 25.898667-57.856 57.813333v179.626667c0 32 25.898667 57.856 57.813333 57.856h179.626667c32 0 57.856-25.898667 57.856-57.813333v-179.626667c0-32-25.898667-57.856-57.813334-57.856z m-494.08 0h-179.626666c-31.914667 0-57.813333 25.898667-57.813334 57.813333v179.626667c0 32 25.898667 57.856 57.813334 57.856h179.626666c32 0 57.856-25.898667 57.856-57.813333v-179.626667c0-32-25.898667-57.856-57.813333-57.856zM277.333333 65.706667a224 224 0 1 1 0 448 224 224 0 0 1 0-448z m571.52 0a121.813333 121.813333 0 0 1 121.813334 121.813333v179.626667a121.813333 121.813333 0 0 1-121.813334 121.856h-179.626666a121.813333 121.813333 0 0 1-121.856-121.813334v-179.626666a121.813333 121.813333 0 0 1 121.813333-121.856zM277.333333 129.706667a160 160 0 1 0 0 320 160 160 0 0 0 0-320z m571.52 0h-179.626666c-32 0-57.856 25.898667-57.856 57.813333v179.626667c0 32 25.898667 57.856 57.813333 57.856h179.626667c32 0 57.856-25.898667 57.856-57.813334v-179.626666c0-32-25.898667-57.856-57.813334-57.856zM277.333333 204.373333a85.333333 85.333333 0 1 1 0 170.666667 85.333333 85.333333 0 0 1 0-170.666667z m0 42.666667a42.666667 42.666667 0 1 0 0 85.333333 42.666667 42.666667 0 0 0 0-85.333333z" fill="#1B2034" p-id="4156"></path></svg>